HIERARCHY
ROOT Hips
{
  OFFSET 0.000000 0.000000 0.000000
  CHANNELS 6 Xposition Yposition Zposition Xrotation Yrotation Zrotation
  JOINT Spine
  {
    OFFSET 1.277922 23.685776 -1.473739
    CHANNELS 3 Xrotation Yrotation Zrotation
    JOINT Chest
    {
      OFFSET 1.277922 23.685776 -1.473739
      CHANNELS 3 Xrotation Yrotation Zrotation
      JOINT Neck
      {
        OFFSET 0.453308 4.227248 -8.323683
        CHANNELS 3 Xrotation Yrotation Zrotation
        JOINT Head
        {
          OFFSET 0.628759 3.735021 -12.486105
          CHANNELS 3 Xrotation Yrotation Zrotation
          End Site
          {
            OFFSET 0.188628 1.120506 -3.745832
          }
        }
      }
      JOINT LeftCollar
      {
        OFFSET 3.000000 4.000000 0.000000
        CHANNELS 3 Xrotation Yrotation Zrotation
        JOINT LeftShoulder
        {
          OFFSET 15.589172 -3.940868 -1.613959
          CHANNELS 3 Xrotation Yrotation Zrotation
          JOINT LeftArm
          {
            OFFSET 1.009262 -19.267075 -10.059340
            CHANNELS 3 Xrotation Yrotation Zrotation
            JOINT LeftForeArm
            {
              OFFSET -7.551586 9.126048 -14.273645
              CHANNELS 3 Xrotation Yrotation Zrotation
              JOINT LeftHand
              {
                OFFSET -2.601524 3.809930 -1.584078
                CHANNELS 3 Xrotation Yrotation Zrotation
                End Site
                {
                  OFFSET -0.780457 1.142979 -0.475223
                }
              }
            }
          }
        }
      }
      JOINT RightCollar
      {
        OFFSET -3.000000 4.000000 0.000000
        CHANNELS 3 Xrotation Yrotation Zrotation
        JOINT RightShoulder
        {
          OFFSET -15.589172 3.940868 1.613959
          CHANNELS 3 Xrotation Yrotation Zrotation
          JOINT RightArm
          {
            OFFSET 0.369772 -24.896812 -13.866074
            CHANNELS 3 Xrotation Yrotation Zrotation
            JOINT RightForeArm
            {
              OFFSET 7.064691 11.192793 -19.148022
              CHANNELS 3 Xrotation Yrotation Zrotation
              JOINT RightHand
              {
                OFFSET 3.786626 5.224959 -4.202100
                CHANNELS 3 Xrotation Yrotation Zrotation
                End Site
                {
                  OFFSET 1.135988 1.567488 -1.260630
                }
              }
            }
          }
        }
      }
    }
  }
  JOINT LeftUpLeg
  {
    OFFSET 9.460444 -0.159481 1.370640
    CHANNELS 3 Xrotation Yrotation Zrotation
    JOINT LeftLeg
    {
      OFFSET 11.476000 -40.598035 -6.922701
      CHANNELS 3 Xrotation Yrotation Zrotation
      JOINT LeftFoot
      {
        OFFSET 10.718289 -38.308795 9.459754
        CHANNELS 3 Xrotation Yrotation Zrotation
        End Site
        {
          OFFSET 3.215487 -11.492639 2.837926
        }
      }
    }
  }
  JOINT RightUpLeg
  {
    OFFSET -9.460444 0.159481 -1.370640
    CHANNELS 3 Xrotation Yrotation Zrotation
    JOINT RightLeg
    {
      OFFSET -1.472079 -34.936613 11.400775
      CHANNELS 3 Xrotation Yrotation Zrotation
      JOINT RightFoot
      {
        OFFSET -12.155832 -39.708799 24.011806
        CHANNELS 3 Xrotation Yrotation Zrotation
        End Site
        {
          OFFSET -3.646750 -11.912640 7.203542
        }
      }
    }
  }
}
MOTION
Frames: 14
Frame Time: 0.083333
0.628383 60.152957 -0.190872 0.963882 -0.042585 0.220511 0.000000 0.000000 0.000000 -0.978654 0.055697 -0.217291 -0.028157 -0.020552 -0.008364 173.675653 6.627120 -11.015578 0.010490 0.131722 -0.286198 -0.304439 0.497793 -0.956838 1.676197 -0.748262 1.006762 0.000000 0.000000 0.000000 0.000000 0.000000 0.000000 0.010490 0.131722 -0.286198 0.199260 -0.224226 0.473801 0.491712 0.045982 -0.164408 0.000000 0.000000 0.000000 0.000000 0.000000 0.000000 -4.030019 -0.622980 -1.033237 0.954662 -0.204930 -0.512689 0.000000 0.000000 0.000000 -0.137475 -0.200165 -0.931035 -1.382590 -0.851757 -1.264872 0.000000 0.000000 0.000000
1.405172 60.227027 -0.222482 0.976159 -0.043149 0.223378 0.000000 0.000000 0.000000 -0.991404 0.057682 -0.219515 -0.029025 -0.020106 -0.008547 173.731682 6.522209 -11.003772 0.016019 0.103107 -0.250922 -0.243228 0.485596 -0.927510 1.572377 -0.701498 0.950243 0.000000 0.000000 0.000000 0.000000 0.000000 0.000000 0.016019 0.103107 -0.250922 0.192879 -0.226877 0.471231 0.371846 0.091646 -0.196797 0.000000 0.000000 0.000000 0.000000 0.000000 0.000000 -4.100208 -0.708478 -1.001369 1.823632 0.047021 -0.628029 0.000000 0.000000 0.000000 0.057656 -0.174392 -0.798398 -1.456741 -0.947713 -1.496069 0.000000 0.000000 0.000000
2.999451 60.237402 -0.210092 0.976531 -0.043166 0.223466 0.000000 0.000000 0.000000 -0.991822 0.057746 -0.219584 -0.029064 -0.020096 -0.008555 173.336892 6.604992 -10.806923 0.068976 0.233734 -0.580042 -0.299485 1.320759 -2.548775 4.097611 -1.861097 2.488845 0.000000 0.000000 0.000000 0.000000 0.000000 0.000000 0.068976 0.233734 -0.580042 0.630956 -0.761164 1.436342 0.682235 0.483955 -0.777170 0.000000 0.000000 0.000000 0.000000 0.000000 0.000000 -5.178418 -0.434433 -2.180241 0.208342 -0.566216 0.081602 0.000000 0.000000 0.000000 -0.202653 -0.633568 -2.675433 -2.963015 -0.608675 -0.308805 0.000000 0.000000 0.000000
4.637518 60.092582 0.123860 2.282639 -0.099227 0.563523 0.000000 0.000000 0.000000 -2.339809 0.169355 -0.538428 -0.073818 -0.023247 -0.020470 173.158398 5.716478 -10.674625 0.169227 0.210289 -0.441256 1.073891 1.639041 -3.266200 4.643515 -2.287003 2.776256 0.000000 0.000000 0.000000 0.000000 0.000000 0.000000 0.169227 0.210289 -0.441256 1.358133 -1.538094 2.467285 0.126319 1.382316 -1.856034 0.000000 0.000000 0.000000 0.000000 0.000000 0.000000 -6.422384 -0.626816 -2.982777 3.104227 0.074795 -0.089766 0.000000 0.000000 0.000000 -0.049122 -1.046077 -4.110993 -3.539695 -0.900203 -0.137250 0.000000 0.000000 0.000000
5.688515 59.984059 0.522569 2.450271 -0.104741 0.670562 0.000000 0.000000 0.000000 -2.567973 0.282975 -0.596970 -0.112259 0.035640 -0.026594 172.443327 5.054716 -10.687431 0.275258 0.096860 0.041710 3.966480 1.133587 -2.366199 2.767063 -1.798519 1.237630 0.000000 0.000000 0.000000 0.000000 0.000000 0.000000 0.275258 0.096860 0.041710 2.596758 -2.324291 3.358252 -0.274713 2.367165 -3.098334 0.000000 0.000000 0.000000 0.000000 0.000000 0.000000 -6.953632 -0.527583 -3.592979 2.799941 -0.263315 -0.162104 0.000000 0.000000 0.000000 -1.181372 -1.608617 -6.116145 -2.051281 -0.949505 1.149473 0.000000 0.000000 0.000000
5.888369 59.978741 0.994226 2.896574 -0.131205 0.675343 0.000000 0.000000 0.000000 -3.083380 0.372355 -0.574845 -0.202081 0.030718 -0.045036 171.101660 5.925773 -10.347229 0.353162 -0.655525 0.528102 6.374391 0.496800 -0.255811 -0.375206 -0.555982 -1.367962 0.000000 0.000000 0.000000 0.000000 0.000000 0.000000 0.353162 -0.655525 0.528102 3.652728 -1.927659 3.392843 -0.417221 2.764836 -3.552703 0.000000 0.000000 0.000000 0.000000 0.000000 0.000000 -6.719023 -0.488982 -4.054892 3.217461 -0.226471 0.012970 0.000000 0.000000 0.000000 -0.856645 -1.865448 -6.883863 -1.564156 -0.705529 2.135516 0.000000 0.000000 0.000000
5.532628 59.990634 1.545820 2.645316 -0.116510 0.668856 0.000000 0.000000 0.000000 -3.062625 0.333453 -0.593367 -0.267062 -0.024694 -0.058063 169.259103 7.347532 -9.576805 0.421048 -1.721013 0.669501 7.248414 0.983522 0.679611 -2.055257 0.045079 -2.448447 0.000000 0.000000 0.000000 0.000000 0.000000 0.000000 0.421048 -1.721013 0.669501 4.466755 -0.903030 3.429748 -0.371094 2.846732 -3.742261 0.000000 0.000000 0.000000 0.000000 0.000000 0.000000 -5.147658 -0.505016 -4.152602 4.157551 0.153069 0.267412 0.000000 0.000000 0.000000 0.377227 -2.041676 -7.112504 -1.914701 -0.115203 3.153792 0.000000 0.000000 0.000000
4.856274 60.032776 2.005923 1.296513 -0.037694 0.636678 0.000000 0.000000 0.000000 -2.081940 0.131016 -0.638092 -0.283943 -0.084488 -0.049744 168.066933 8.149141 -8.386569 0.617373 -2.518997 0.389314 6.996215 2.431557 0.184436 -1.900207 -0.547586 -1.745458 0.000000 0.000000 0.000000 0.000000 0.000000 0.000000 0.617373 -2.518997 0.389314 4.377787 0.173548 3.668526 0.084670 2.685896 -3.715627 0.000000 0.000000 0.000000 0.000000 0.000000 0.000000 -1.797464 -0.397984 -4.045693 5.662094 0.755832 0.306238 0.000000 0.000000 0.000000 2.645301 -2.117075 -6.774476 -3.038980 0.154452 3.122299 0.000000 0.000000 0.000000
3.915981 60.008762 2.035702 -1.093389 0.101981 0.597800 0.000000 0.000000 0.000000 -0.180381 -0.224003 -0.721665 -0.207003 0.009592 0.021488 167.881014 7.552414 -7.078581 1.235127 -1.519961 -0.288768 4.706532 2.464005 -0.283501 1.711008 -1.371808 -0.545499 0.000000 0.000000 0.000000 0.000000 0.000000 0.000000 1.235127 -1.519961 -0.288768 3.057388 -0.543355 4.599263 0.775601 2.566641 -3.856559 0.000000 0.000000 0.000000 0.000000 0.000000 0.000000 0.183047 0.170880 -3.832176 4.482300 0.353279 0.254947 0.000000 0.000000 0.000000 2.560690 -1.950960 -6.238138 -3.911440 0.308091 2.806819 0.000000 0.000000 0.000000
3.122711 59.932091 1.416877 -1.062521 0.099569 0.590683 0.000000 0.000000 0.000000 -0.691379 -0.421470 -0.831124 -0.163315 0.256700 0.126900 168.101528 7.207402 -6.274022 1.881845 -0.529068 -0.737630 3.272484 2.017637 -0.567873 2.852259 -1.882448 0.297165 0.000000 0.000000 0.000000 0.000000 0.000000 0.000000 1.881845 -0.529068 -0.737630 1.660694 -1.575593 5.497785 2.118507 2.508410 -4.288239 0.000000 0.000000 0.000000 0.000000 0.000000 0.000000 1.463511 0.441370 -3.154249 2.775944 -0.032824 0.012447 0.000000 0.000000 0.000000 2.463379 -1.748730 -5.767578 -4.535241 0.477971 2.500580 0.000000 0.000000 0.000000
2.976167 60.008865 0.507224 -0.905253 0.105560 0.814863 0.000000 0.000000 0.000000 -1.321122 -0.500257 -1.111918 -0.096357 0.476292 0.195604 168.200915 7.345822 -6.685730 2.288046 0.605860 -0.917143 3.046821 1.044365 -0.434102 2.869448 -2.040738 0.386809 0.000000 0.000000 0.000000 0.000000 0.000000 0.000000 2.288046 0.605860 -0.917143 1.250476 -2.835559 6.085020 2.857250 2.613636 -4.647745 0.000000 0.000000 0.000000 0.000000 0.000000 0.000000 0.906529 0.221845 -2.119343 2.853518 0.454354 0.144210 0.000000 0.000000 0.000000 1.639956 -1.634745 -5.791357 -4.434258 0.800562 2.681721 0.000000 0.000000 0.000000
3.516930 60.407583 -0.284877 -0.331258 0.093860 1.175858 0.000000 0.000000 0.000000 -2.070265 -0.530122 -1.506823 -0.064646 0.503415 0.213998 168.465347 7.080719 -7.126975 2.347070 1.228585 -1.005032 3.420943 0.415629 -0.468022 2.389066 -2.315399 0.380679 0.000000 0.000000 0.000000 0.000000 0.000000 0.000000 2.347070 1.228585 -1.005032 0.576698 -3.647973 6.273527 3.782564 2.556729 -4.812811 0.000000 0.000000 0.000000 0.000000 0.000000 0.000000 -0.841189 -0.130863 -1.047537 5.800450 1.799167 1.055975 0.000000 0.000000 0.000000 -0.958807 -1.753801 -6.614433 -2.924024 1.826969 4.277153 0.000000 0.000000 0.000000
4.590045 60.829206 -0.649839 0.594210 0.046761 1.377197 0.000000 0.000000 0.000000 -2.878235 -0.341719 -1.652918 -0.069008 0.507772 0.192777 168.699182 6.851603 -7.463846 2.066335 0.148314 -0.785038 3.523000 0.908601 -0.274237 2.298704 -1.838683 -0.069070 0.000000 0.000000 0.000000 0.000000 0.000000 0.000000 2.066335 0.148314 -0.785038 1.094841 -2.848070 5.998626 3.609407 2.586833 -4.866785 0.000000 0.000000 0.000000 0.000000 0.000000 0.000000 -3.225277 -0.898112 -0.568593 11.684982 3.343647 0.070514 0.000000 0.000000 0.000000 -4.078800 -2.163662 -8.283343 0.909558 2.477617 5.629156 0.000000 0.000000 0.000000
5.807395 61.093326 -0.760870 0.490912 0.073582 1.724317 0.000000 0.000000 0.000000 -2.667571 -0.129196 -1.897587 -0.086511 0.490311 0.142071 169.003632 6.562386 -8.299052 1.689208 -1.319950 0.254023 4.792305 -0.591612 2.700519 -0.335047 1.701386 -3.388684 0.000000 0.000000 0.000000 0.000000 0.000000 0.000000 1.689208 -1.319950 0.254023 2.428444 -1.798738 4.807363 2.597316 2.631939 -4.890886 0.000000 0.000000 0.000000 0.000000 0.000000 0.000000 -3.387142 -0.892866 -1.065698 11.212212 3.134931 -0.488566 0.000000 0.000000 0.000000 -3.934123 -2.429751 -9.504023 -0.084760 2.271124 5.546962 0.000000 0.000000 0.000000
